<svg xmlns="http://www.w3.org/2000/svg" width="200" height="125"><path d="M114.861 48.657a.573.573 0 00-.163-.053l-1.616 1.56L93.16 39.91a6.966 6.966 0 00-.635-.03c-5.573 0-6.773 7.164-6.965 8.678-.013.102-.02.178-.025.225a.627.627 0 01-.007.056c-.194-.158-.391-.243-.585-.243a.65.65 0 00-.384.129c-.63.452-.883 2.03-.562 3.816.242 1.357.754 2.49 1.313 3.05.24.24.489.376.73.376a.76.76 0 00.11-.01.723.723 0 00.362-.188c1.323 4.117 3.849 8.22 7.04 10.697 1.877 1.46 3.987 2.356 6.217 2.356 2.215 0 4.312-.883 6.183-2.327 3.205-2.476 5.747-6.593 7.076-10.724a.691.691 0 00.47.197c.201 0 .411-.092.615-.266.601-.512 1.169-1.706 1.426-3.157.339-1.895.033-3.554-.678-3.887z" fill="none"/><path d="M109.233 67.608l-.033-.016c-1.625 1.602-3.431 2.87-5.358 3.634-1.308.52-2.671.807-4.073.807-1.4 0-2.765-.288-4.072-.807-1.945-.773-3.767-2.056-5.403-3.677h-.002c0 1.997-1.525 3.134-2.562 3.677a6.73 6.73 0 01-.346.17 5.168 5.168 0 01-.541.215v.002c.061.51.288 1.006.653 1.473 1.712 2.19 6.526 5.353 12.199 5.353s10.486-3.163 12.196-5.353c.367-.469.594-.963.655-1.473l.006-.043c-.697-.26-3.279-1.388-3.319-3.962zm32.507-11.822c.223.225.456.335.677.295a.573.573 0 00.293-.152c1.077 3.354 3.141 6.694 5.749 8.69 1.502 1.15 3.183 1.851 4.955 1.851 1.813 0 3.528-.734 5.056-1.929 2.558-2.001 4.587-5.302 5.649-8.612a.573.573 0 00.293.152c.19.035.389-.043.585-.208.486-.412.944-1.377 1.154-2.547.272-1.53.027-2.869-.55-3.136a.467.467 0 00-.128-.042c-.178-.033-.364.034-.547.177l-.009.011-.002-.004a.016.016 0 00-.003.004c-.004-.009-.004-.02-.006-.032-.689-2.62-1.558-4.224-2.455-5.18a2.627 2.627 0 00-.556-.235c-.023.387.416.974.465 1.546-1.245-.58-2.436-1.482-4.175-1.546-.409-.014-.846-.01-1.299-.002-4.194 1.499-8.807-.195-8.807-.195-5.26-.489-6.095 4.976-6.158 5.6-.004.017-.004.033-.005.046-.189-.15-.379-.22-.563-.188a.52.52 0 00-.223.097c-.164.118-.293.339-.387.621a38.892 38.892 0 00-.098 2.248c.013.072.018.14.033.213.199 1.091.61 2.005 1.062 2.457zm-106.893.399c.22.222.45.33.67.293a.56.56 0 00.289-.15c1.066 3.316 3.109 6.619 5.686 8.591 1.485 1.137 3.148 1.834 4.902 1.834 1.793 0 3.49-.726 5-1.91 2.531-1.98 4.536-5.242 5.59-8.517a.55.55 0 00.289.152c.188.032.383-.046.577-.207.481-.407.936-1.362 1.142-2.52.27-1.511.027-2.836-.541-3.104a.506.506 0 00-.129-.041c-.175-.031-.36.034-.539.177l-.01.01v-.003c-.003.002-.004.004-.006.004 0-.01 0-.022-.002-.033-.682-2.591-1.542-4.18-2.43-5.124a2.815 2.815 0 00-.547-.232c-.023.382.413.965.458 1.529-1.232-.574-2.41-1.466-4.13-1.529-.403-.014-.837-.01-1.282-.002-4.152 1.482-8.712-.194-8.712-.194-5.202-.483-6.027 4.923-6.09 5.541a.357.357 0 01-.004.046c-.187-.15-.375-.22-.554-.187a.524.524 0 00-.223.094c-.162.118-.29.335-.383.616-.05.727-.084 1.464-.096 2.222.01.07.018.14.03.212.19 1.082.598 1.985 1.045 2.432z" fill="none"/><path d="M69.569 72.977c-2.58-2.77-5.141-2.984-5.923-3.166-2.465-.578-5.452-.332-7.045-.83-.278 2.333-4.768 4.188-10.265 4.188-5.498 0-9.987-1.855-10.266-4.187-1.592.5-4.576.251-7.045.829-1.25.291-7.07.666-10.216 11.498-.428 1.47-.277 3.07.418 4.38 2.578 4.88 16.143 6.381 27.109 6.378 5.014.001 10.573-.315 15.378-1.122a10.933 10.933 0 01.27-4.844c1.715-5.9 4.257-10.282 7.585-13.124z" fill="#0f644b"/><path d="M33.645 57.451c1.16 3.122 2.997 6.153 5.268 8.371 1.285 1.256 2.71 2.25 4.229 2.854a8.816 8.816 0 003.252.642c1.12 0 2.21-.231 3.253-.642 1.573-.624 3.046-1.666 4.365-2.986 2.215-2.211 4.006-5.197 5.143-8.264.874-.257 1.791-1.897 2.164-3.99.407-2.27.023-4.253-.852-4.582.03-.556.052-1.115.05-1.692-.021-8.233-4.848-13.67-12.46-14.18-6.636-.447-11.636 2.192-13.912 6.573-.768 1.474-1.206 3.97-1.372 5.975a13.624 13.624 0 00-.405 3.248h.025l-.002.027c-.016 0-.032 0-.049.004-.971.17-1.413 2.24-.988 4.625.39 2.193 1.377 3.89 2.291 4.017m.22-6.134c.093-.28.22-.498.383-.615a.574.574 0 01.222-.094c.18-.033.37.036.554.186 0-.015.002-.03.004-.045.063-.62.888-6.024 6.09-5.541 0 0 4.563 1.675 8.712.193.447-.009.881-.012 1.283.002 1.72.065 2.897.956 4.13 1.53-.048-.567-.484-1.148-.458-1.53.195.056.374.141.546.232.889.944 1.748 2.533 2.43 5.125.002.009.002.021.002.032.002 0 .004-.002.006-.004v.004l.01-.01c.18-.144.364-.207.54-.178a.508.508 0 01.128.041c.567.266.81 1.593.541 3.104-.206 1.158-.66 2.113-1.142 2.52-.191.162-.389.24-.577.207a.557.557 0 01-.29-.152c-1.053 3.275-3.058 6.538-5.59 8.518-1.508 1.181-3.206 1.909-4.999 1.909-1.754 0-3.416-.697-4.902-1.833-2.577-1.973-4.62-5.277-5.686-8.592a.554.554 0 01-.29.15c-.218.038-.448-.07-.669-.293-.447-.447-.854-1.352-1.05-2.436-.012-.072-.017-.141-.03-.212a46.21 46.21 0 01.101-2.218zM181.189 81.19c-3.185-10.956-9.068-11.332-10.335-11.627-2.492-.583-5.51-.335-7.122-.836-.188 1.578-4.785 6.775-7.796 10.034l-1.306-5.03c.982-.58 1.194-1.857 1.194-2.918h-4.946c0 1.053.212 2.316 1.171 2.903l-1.281 5.045c-3.013-3.26-7.606-8.454-7.797-10.034-1.609.503-4.631.255-7.123.838-.802.188-3.46.412-6.111 3.338 3.368 2.841 5.936 7.253 7.665 13.205.457 1.572.536 3.223.276 4.806 4.884.832 10.557 1.156 15.67 1.156 11.09.002 24.804-1.516 27.412-6.447.709-1.329.861-2.946.429-4.434z" fill="#0f644b"/><path d="M140.524 57.066c1.173 3.156 3.029 6.22 5.326 8.463 1.299 1.27 2.739 2.277 4.274 2.886a8.902 8.902 0 003.288.65 8.896 8.896 0 003.29-.65c1.588-.63 3.078-1.684 4.411-3.018 2.241-2.237 4.05-5.255 5.199-8.357.885-.26 1.813-1.918 2.19-4.033.412-2.296.023-4.3-.863-4.634a28.2 28.2 0 00.05-1.71c-.021-8.324-4.902-13.165-12.598-13.68-6.71-.451-11.766 2.214-14.068 6.646-.774 1.49-1.217 3.355-1.386 5.383a13.693 13.693 0 00-.41 3.285h.023c0 .009 0 .018-.002.025-.016.002-.032.002-.049.005-.98.17-1.427 2.264-.997 4.676.398 2.22 1.399 3.933 2.322 4.063m.223-6.203c.094-.283.222-.503.387-.621a.524.524 0 01.222-.098c.185-.032.375.038.563.188.002-.014.002-.03.006-.045.063-.624.897-6.089 6.158-5.6 0 0 4.612 1.695 8.807.195.452-.01.89-.013 1.299.002 1.739.063 2.928.966 4.175 1.545-.047-.572-.489-1.158-.465-1.545.199.056.38.14.555.235.898.956 1.768 2.56 2.456 5.179l.003.034.006-.003.002.003.009-.01c.183-.143.369-.21.546-.178a.466.466 0 01.129.042c.575.268.821 1.609.55 3.136-.208 1.17-.668 2.137-1.155 2.548-.195.164-.394.242-.584.208a.563.563 0 01-.293-.152c-1.063 3.31-3.091 6.608-5.65 8.612-1.527 1.194-3.243 1.929-5.056 1.929-1.771 0-3.452-.704-4.954-1.852-2.606-1.996-4.673-5.336-5.749-8.69a.586.586 0 01-.294.153c-.22.04-.454-.07-.676-.295-.453-.453-.865-1.366-1.061-2.463-.014-.074-.02-.143-.032-.214.009-.765.041-1.507.096-2.243zm-19.379 21.785a13.84 13.84 0 00-.552-.116c-4.759-4.397-1.511-22.75-1.511-22.75 0-23.374-13.212-25.296-17.557-25.296-.854 0-1.366.075-1.366.075-.231-.013-.46-.022-.686-.031a30.49 30.49 0 00-.685.03s-.51-.074-1.367-.074c-4.343 0-17.556 1.92-17.556 25.296 0 0 3.246 18.355-1.511 22.75-.186.037-.371.075-.55.116-1.57.366-8.855.834-12.797 14.397-.534 1.842-.344 3.844.524 5.485 3.227 6.1 20.184 7.984 33.906 7.984h.073c13.723 0 30.681-1.882 33.907-7.984.867-1.641 1.055-3.645.522-5.485-3.944-13.563-11.225-14.03-12.794-14.397m-8.818-1.035c-.062.51-.288 1.006-.655 1.473-1.71 2.19-6.524 5.353-12.197 5.353-5.673 0-10.486-3.163-12.198-5.353-.366-.469-.592-.963-.653-1.473v-.002c.087-.029.282-.098.54-.215.106-.047.225-.105.346-.17 1.037-.543 2.563-1.681 2.563-3.677h.001c1.636 1.621 3.459 2.904 5.404 3.677 1.306.52 2.67.807 4.071.807 1.403 0 2.765-.288 4.074-.807 1.925-.764 3.733-2.032 5.358-3.634l.032.016c.04 2.574 2.623 3.703 3.323 3.96-.006.016-.007.029-.009.045m2.987-19.073c-.257 1.451-.825 2.646-1.426 3.158-.204.173-.414.266-.615.266a.7.7 0 01-.47-.197c-1.328 4.13-3.871 8.248-7.076 10.723-1.869 1.444-3.966 2.327-6.183 2.327-2.228 0-4.338-.895-6.218-2.356-3.188-2.477-5.716-6.58-7.039-10.696a.71.71 0 01-.362.188.758.758 0 01-.11.009c-.24 0-.49-.136-.73-.376-.559-.56-1.07-1.692-1.313-3.05-.32-1.786-.067-3.364.563-3.816a.66.66 0 01.383-.128c.194 0 .391.085.585.242l.007-.056.025-.224c.192-1.515 1.392-8.68 6.965-8.68.205 0 .418.01.635.032L113.08 50.16l1.616-1.56a.64.64 0 01.163.052c.713.337 1.019 1.996.678 3.887z" fill="#0f644b"/></svg>