<svg xmlns="http://www.w3.org/2000/svg" width="100" height="125"><path d="M84.464 76.286c-.019 0-.035.005-.054.006l-3.295-17.268c1.933-.589 3.349-2.364 3.349-4.489 0-2.432-1.85-4.411-4.215-4.664V33.669a2.87 2.87 0 002.375-2.824 2.875 2.875 0 00-2.875-2.875 2.86 2.86 0 00-1.512.438L68.128 17.126c.047-.191.078-.389.078-.595a2.52 2.52 0 00-4.992-.5H29.161a1.381 1.381 0 10-2.294 1.443L15.687 40.79a2.473 2.473 0 00-.605-.082 2.5 2.5 0 00-.526 4.942l5.859 21.743a2.868 2.868 0 00-1.657 2.596 2.875 2.875 0 002.875 2.875c.904 0 1.701-.427 2.229-1.08l23.297 9.857c-.094.31-.159.632-.159.973a3.376 3.376 0 006.75 0 3.35 3.35 0 00-.616-1.935l6.756-6.425c.221.117.468.189.735.189.551 0 1.034-.283 1.317-.71l19.595 5.24c-.008.089-.026.174-.026.265a2.953 2.953 0 102.953-2.952m-5.215-42.617v16.202a4.698 4.698 0 00-3.376 1.988l-11.646-6.33c.007-.054.017-.107.017-.164 0-.157-.032-.306-.081-.445L77.94 33.062c.372.304.816.52 1.309.607M75.15 55.55l-12.962 4.346 1.084-13.229c.178-.054.338-.142.477-.258l11.645 6.328a4.641 4.641 0 00-.244 2.813M23.732 42.238l12.991-8.042c.536.44 1.214.717 1.963.717.169 0 .331-.024.493-.05l4.104 12.311a2.788 2.788 0 00-1.457 2.441c0 .118.021.23.034.345l-11.929 3.755a2.217 2.217 0 00-2.058-1.398c-.37 0-.714.1-1.021.26l-3.546-9.071a1.378 1.378 0 00.426-1.268m6.341 12.48l12.087-3.804a2.787 2.787 0 002.464 1.499c.142 0 .277-.021.414-.042l3.439 10.056c-.309.181-.576.42-.782.71l-17.736-7.872c.061-.174.099-.357.114-.547m14.551-7.901c-.135 0-.264.021-.393.039l-4.104-12.313a3.104 3.104 0 001.612-2.168l13.098.313c.042.113.095.221.164.318l-9.277 14.037a2.78 2.78 0 00-1.1-.226m11.211-13.258a1.286 1.286 0 00.514.009l5.513 10.896a1.339 1.339 0 00-.328.702l-14.344 3.34a2.772 2.772 0 00-.634-.906l9.279-14.041m1.372-.51a1.37 1.37 0 00.213-.406l19.538-1.135c.068.285.182.552.327.798L63.51 44.162a1.363 1.363 0 00-.632-.162c-.043 0-.082.009-.124.013l-5.547-10.964m7.096-14.411c.397.261.871.415 1.382.415.801 0 1.505-.38 1.967-.961l9.845 10.986a2.843 2.843 0 00-.588 1.431l-19.543 1.136a1.328 1.328 0 00-.186-.292l7.123-12.715M29.16 17.031h34.054c.063.315.188.606.356.867l-7.263 12.965c-.062-.009-.123-.019-.187-.019-.569 0-1.059.348-1.266.843l-13.102-.313a3.103 3.103 0 00-3.067-2.683c-.49 0-.947.123-1.359.325l-8.301-11.724c.056-.079.099-.168.135-.261m-1.063.863c.038-.007.075-.014.112-.023l8.297 11.718a3.1 3.1 0 00-.93 2.215c0 .601.179 1.157.475 1.634L23.203 41.39c-.024-.019-.047-.038-.073-.056l4.967-23.44m-1.578 2.62l-4.367 20.615a1.379 1.379 0 00-1.104.99l-3.588.354a2.476 2.476 0 00-.871-1.248l9.93-20.711m-4.886 46.601c-.086 0-.167.018-.25.025l-5.79-21.484a2.493 2.493 0 001.964-2.188l3.589-.354c.229.448.69.761 1.229.761l.004-.001 3.675 9.399a2.203 2.203 0 00-.396 1.262c0 .75.376 1.413.948 1.815l-4.361 10.833a2.95 2.95 0 00-.612-.068m27.614 12.332a3.379 3.379 0 00-1.674 1.284l-23.228-9.828c.097-.288.162-.592.162-.913a2.867 2.867 0 00-1.341-2.424l4.366-10.846c.112.018.225.034.341.034.603 0 1.147-.243 1.548-.635l17.866 7.93a2.562 2.562 0 00-.063.544 2.52 2.52 0 002.021 2.471v12.383h.002m.177-17.343l-3.44-10.059c.197-.11.381-.239.545-.392l12.505 9.299-7.112 2.385a2.51 2.51 0 00-2.174-1.266c-.111.001-.217.02-.324.033m10.824 9.231a1.58 1.58 0 00-1.204 1.53c0 .239.058.464.152.667l-6.759 6.43a3.347 3.347 0 00-2.063-.722c-.044 0-.084.011-.127.013V67.064a2.52 2.52 0 002.021-2.471c0-.105-.019-.206-.03-.308l7.773-2.606.97.722-.733 8.934m-.059-10.769L47.122 50.85c.186-.374.3-.789.3-1.234 0-.047-.012-.09-.014-.135l14.347-3.341c.132.19.313.343.521.445l-1.119 13.656-.968.325m21.598 17.441l-19.593-5.239a1.577 1.577 0 00-.95-1.355l.682-8.309 19.913 14.809c-.017.031-.036.061-.052.094m.644-.902l-20.41-15.176.078-.949 13.373-4.483a4.708 4.708 0 004.276 2.753c.131 0 .255-.028.383-.039l3.297 17.272c-.374.14-.712.351-.997.622z" fill="#165c9e"/></svg>