<svg xmlns="http://www.w3.org/2000/svg" width="100" height="125"><path d="M33.9 16.2h.1c1.2-.1 2.3-.2 3.6-.3.6 0 1-.5.9-1.1 0-.6-.5-1-1.1-.9l-3.6.3c-.5.1-1 .5-.9 1.1 0 .5.4.9 1 .9zm6.2 11.6c2.2-3.1 5.8-5.1 9.9-5.1 4.1 0 7.7 2 9.9 5.1.7-.1 1.5-.2 2.2-.3-2.5-4.1-7-6.8-12.1-6.8s-9.6 2.7-12.1 6.8c.7.1 1.5.2 2.2.3zm-22.6 2.3v24.4c0 .6.4 1 1 1s1-.4 1-1V30.1c0-.6-.4-1-1-1s-1 .5-1 1z" fill="#4a851e"/><path d="M12.8 49.8c.6 0 1-.4 1-1V23.5c7.3 3.4 15 5.8 22.8 7-.3.8-.5 1.7-.6 2.5-1.6.1-2.9 1.5-2.9 3.1v1.5h-.3c-.6 0-1 .4-1 1v4.9c0 .6.4 1 1 1h.3V46c0 1.7 1.4 3.2 3.2 3.2h.5c1 3.2 2.9 6.4 5.3 8.7 0 .7-.1 3.8-3.9 6.4.9.1 1.8.3 2.8.4 2-1.9 2.7-3.9 3-5.3 1.8 1.3 3.9 2 6.1 2 2.2 0 4.3-.8 6.1-2 .3 1.4 1 3.4 3 5.3.9-.1 1.8-.2 2.7-.4-3.7-2.6-3.9-5.7-3.8-6.4 2.4-2.3 4.3-5.5 5.3-8.7h.5c1.7 0 3.2-1.4 3.2-3.2v-1.5h.5c.6 0 1-.4 1-1v-4.9c0-.6-.4-1-1-1h-.5v-1.5c0-1.6-1.3-3-2.9-3.1-.1-.9-.3-1.7-.6-2.5 8.3-1.3 16.4-3.9 24.2-7.7.4-.2.6-.6.5-1 0-.2 0-.4-.1-.7-2.6-4.1-15.1-6-20.3-6.6-.6-.1-1 .3-1.1.9-.1.5.3 1 .9 1.1 10.5 1.2 16.1 3.3 18.2 4.9-22.9 10.8-49 10.8-71.9-.2.5-1.2 4.5-3.2 14.2-4.6.5-.1.9-.6.8-1.1-.1-.5-.6-.9-1.1-.8-10.2 1.5-15.6 3.7-15.9 6.6 0 .1-.1.2-.1.3v27.2c-.1.6.3 1 .9 1M50 59.5c-5 0-9.3-5.1-11.2-10.3h6.8c.4 0 .7-.2.9-.6v-.1l2.2-3.7c.3-.6.8-.8 1.3-.8s1 .3 1.3.8l2.1 3.7.1.2c.2.3.5.6.9.6h6.8c-1.9 5-6.2 10.2-11.2 10.2M38.5 30.8c3.8.5 7.6.8 11.5.8 3.8 0 7.7-.3 11.5-.8.3.7.4 1.4.6 2.2H38c.1-.8.3-1.5.5-2.2M63.1 35h.6c.6 0 1.2.5 1.2 1.2V46c0 .6-.5 1.2-1.2 1.2H55l-2-3.4c-.6-1.1-1.8-1.8-3-1.8-1.3 0-2.4.7-3 1.8l-2 3.4h-8.7c-.6 0-1.2-.5-1.2-1.2v-1.2l4.9-3c.2-.1.2-.3.1-.5s-.3-.2-.5-.1L35.1 44v-1.4l4.9-3c.2-.1.2-.3.1-.5s-.3-.2-.5-.1l-4.5 2.8v-5.5c0-.6.5-1.2 1.2-1.2h26.8V35z" fill="#4a851e"/><path d="M87.2 29.4c-.6 0-1 .4-1 1v27c-7 3.9-14.6 6.6-22.3 8.1-1 .2-2.1.4-3.2.5-7.1 1-14.4 1-21.5 0-1.1-.2-2.1-.3-3.2-.5-7.9-1.5-15.6-4.3-22.8-8.4-.4-.2-.8-.2-1.1.1l-.3.3c-.3.5-.1 1.1.4 1.4 6.4 3.6 13.2 6.3 20.2 7.9-.9.2-1.9.5-3 .6-15 2.4-14.7 17.6-14.7 17.8 0 .5.5 1 1 1 .6 0 1-.5 1-1 0-.6-.3-13.5 13-15.7 2.7-.4 4.8-1.1 6.6-1.8 4.5.8 9.1 1.2 13.6 1.2 4.6 0 9.1-.4 13.7-1.2 1.8.8 3.9 1.4 6.6 1.8 13.3 2.1 13.1 15.1 13 15.7 0 .6.4 1 1 1 .5 0 1-.4 1-1 0-.2.4-15.3-14.7-17.7-1.1-.2-2.1-.4-3-.6 7-1.6 13.8-4.3 20.2-7.9 0 0 .1 0 .1-.1.1 0 .1-.1.2-.2l.1-.1c0-.1.1-.1.1-.2v-28c0-.5-.4-1-1-1z" fill="#4a851e"/></svg>